<mxfile host="app.diagrams.net" modified="2024-03-19T06:41:29.313Z" agent="Mozilla/5.0 (Windows NT 10.0; Win64; x64) AppleWebKit/537.36 (KHTML, like Gecko) Chrome/122.0.0.0 Safari/537.36" version="24.0.7" etag="sWW5oH42v_zR_osZLcdw" type="github">
  <diagram name="Trang-1" id="9hMVYEg62_xoFSdk9WDa">
    <mxGraphModel>
      <root>
        <mxCell id="0" />
        <mxCell id="1" parent="0" />
      </root>
    </mxGraphModel>
  </diagram>
</mxfile>
